<svg width="28" height="20" viewBox="0 0 28 20" fill="none" xmlns="http://www.w3.org/2000/svg">
<path d="M25.5711 8.7025C26.1636 9.4775 26.1636 10.5238 25.5711 11.2975C23.7049 13.7338 19.2274 18.75 13.9999 18.75C8.77239 18.75 4.29489 13.7338 2.42864 11.2975C2.14037 10.9264 1.98389 10.4699 1.98389 10C1.98389 9.5301 2.14037 9.07358 2.42864 8.7025C4.29489 6.26625 8.77239 1.25 13.9999 1.25C19.2274 1.25 23.7049 6.26625 25.5711 8.7025V8.7025Z" stroke="white" stroke-width="2.5" stroke-linecap="round" stroke-linejoin="round"/>
<path d="M14 13.75C16.0711 13.75 17.75 12.0711 17.75 10C17.75 7.92893 16.0711 6.25 14 6.25C11.9289 6.25 10.25 7.92893 10.25 10C10.25 12.0711 11.9289 13.75 14 13.75Z" stroke="white" stroke-width="2.5" stroke-linecap="round" stroke-linejoin="round"/>
</svg>
