<svg width="20" height="20" viewBox="0 0 20 20" fill="none" xmlns="http://www.w3.org/2000/svg">
<path d="M1.66675 14.5V2.16669C1.66675 2.03408 1.71943 1.9069 1.81319 1.81313C1.90696 1.71937 2.03414 1.66669 2.16675 1.66669H14.5001C14.5657 1.66669 14.6308 1.67962 14.6914 1.70475C14.7521 1.72987 14.8072 1.7667 14.8536 1.81313C14.9001 1.85956 14.9369 1.91468 14.962 1.97535C14.9871 2.03601 15.0001 2.10103 15.0001 2.16669V14.5C15.0001 14.5657 14.9871 14.6307 14.962 14.6914C14.9369 14.752 14.9001 14.8071 14.8536 14.8536C14.8072 14.9 14.7521 14.9368 14.6914 14.962C14.6308 14.9871 14.5657 15 14.5001 15H2.16675C2.10109 15 2.03607 14.9871 1.97541 14.962C1.91474 14.9368 1.85962 14.9 1.81319 14.8536C1.76677 14.8071 1.72994 14.752 1.70481 14.6914C1.67968 14.6307 1.66675 14.5657 1.66675 14.5V14.5Z" stroke="black" stroke-width="1.5"/>
<path d="M6.66675 18.3334H17.8334C17.8991 18.3334 17.9641 18.3204 18.0248 18.2953C18.0854 18.2702 18.1405 18.2333 18.187 18.1869C18.2334 18.1405 18.2702 18.0854 18.2954 18.0247C18.3205 17.964 18.3334 17.899 18.3334 17.8334V6.66669" stroke="black" stroke-width="1.5" stroke-linecap="round"/>
<path d="M9.16675 10.4167C9.16675 10.7482 9.03505 11.0662 8.80063 11.3006C8.56621 11.535 8.24827 11.6667 7.91675 11.6667C7.58523 11.6667 7.26728 11.535 7.03286 11.3006C6.79844 11.0662 6.66675 10.7482 6.66675 10.4167C6.66675 10.0852 6.79844 9.76722 7.03286 9.5328C7.26728 9.29838 7.58523 9.16669 7.91675 9.16669C8.24827 9.16669 8.56621 9.29838 8.80063 9.5328C9.03505 9.76722 9.16675 10.0852 9.16675 10.4167V10.4167Z" fill="black"/>
<path d="M9.16675 10.4167V5.5C9.16675 5.36739 9.21943 5.24021 9.31319 5.14645C9.40696 5.05268 9.53414 5 9.66675 5H10.8334M9.16675 10.4167C9.16675 10.7482 9.03505 11.0661 8.80063 11.3006C8.56621 11.535 8.24827 11.6667 7.91675 11.6667C7.58523 11.6667 7.26728 11.535 7.03286 11.3006C6.79844 11.0661 6.66675 10.7482 6.66675 10.4167C6.66675 10.0851 6.79844 9.7672 7.03286 9.53278C7.26728 9.29836 7.58523 9.16667 7.91675 9.16667C8.24827 9.16667 8.56621 9.29836 8.80063 9.53278C9.03505 9.7672 9.16675 10.0851 9.16675 10.4167V10.4167Z" stroke="black" stroke-width="1.5" stroke-linecap="round"/>
</svg>
