<svg width="156" height="40" viewBox="0 0 156 40" fill="none" xmlns="http://www.w3.org/2000/svg">
<path d="M19.6333 39.1731H24.362V31.3673C24.1414 31.3502 23.9104 31.327 23.6876 31.2989C23.3159 31.2641 22.9442 31.2129 22.578 31.15C22.3723 31.1214 22.1722 31.0871 21.9714 31.0469C21.8396 31.0182 21.7084 30.9956 21.5766 30.9669C21.3307 30.9211 21.0847 30.8638 20.8393 30.8015C20.047 30.6134 19.2659 30.3805 18.5 30.1039C18.2144 30.0013 17.9286 29.8927 17.6425 29.778C17.4594 29.7035 17.2764 29.6236 17.0911 29.5436C16.3416 29.2179 15.6106 28.8514 14.9012 28.4457V28.5372C14.233 28.1804 13.6075 27.7488 13.0368 27.2507C13.0313 27.2507 13.0252 27.2446 13.0197 27.2391C12.5107 26.879 12.0188 26.4957 11.5385 26.0954C11.0697 25.7005 10.6175 25.2891 10.183 24.8546C9.96242 24.6373 9.74184 24.4134 9.53725 24.1851C9.52506 24.1789 9.51502 24.1691 9.50857 24.157C9.30233 23.9364 9.10821 23.7219 8.91962 23.4953C8.50768 23.026 8.12442 22.5457 7.76156 22.0427C7.5669 21.7797 7.38382 21.5106 7.20128 21.2359C7.05791 21.0247 6.92556 20.8185 6.79486 20.6012C6.78935 20.5957 6.78935 20.5902 6.78383 20.5841C6.65187 20.3783 6.52592 20.1667 6.40609 19.9494C6.09176 19.3946 5.79452 18.8228 5.52376 18.2399C5.40961 17.9939 5.2949 17.748 5.19288 17.496C4.98112 16.9931 4.78646 16.4841 4.61496 15.9696C4.55209 15.7865 4.4953 15.6034 4.43795 15.4181C4.32324 15.0525 4.21736 14.6808 4.12361 14.3086C4.08887 14.1773 4.05468 14.04 4.026 13.9088C3.96314 13.6628 3.91186 13.4224 3.86057 13.1764C3.80874 12.9079 3.75745 12.6388 3.71719 12.3702C3.6659 12.073 3.62013 11.7697 3.58594 11.4724C3.55175 11.221 3.5308 10.9761 3.50599 10.7291C3.49441 10.626 3.48835 10.5289 3.48283 10.4258C3.47416 10.371 3.46846 10.3158 3.46573 10.2604C3.45415 10.123 3.44864 9.98462 3.44258 9.84841C3.41979 9.47673 3.40838 9.09937 3.40838 8.71628C1.9206 10.9232 0.900003 13.4111 0.409325 16.027C-0.0813506 18.643 -0.0317352 21.3316 0.555149 23.9276C0.560663 23.9386 0.560674 23.9557 0.566189 23.9673C1.37513 27.4888 3.1417 30.718 5.67078 33.2985C8.1998 35.8789 11.3929 37.7101 14.8974 38.5897C16.4456 38.98 18.0365 39.176 19.6333 39.1731Z" fill="white"/>
<path d="M24.3623 31.3671V21.7718C24.3691 21.1465 24.2518 20.526 24.0171 19.9464C23.7825 19.3667 23.4352 18.8393 22.9954 18.3947C22.5556 17.9502 22.032 17.5972 21.4549 17.3564C20.8778 17.1155 20.2587 16.9915 19.6333 16.9915C19.008 16.9915 18.3888 17.1155 17.8117 17.3564C17.2346 17.5972 16.711 17.9502 16.2712 18.3947C15.8314 18.8393 15.4842 19.3667 15.2495 19.9464C15.0149 20.526 14.8976 21.1465 14.9043 21.7718V28.4444C17.8033 30.1033 21.0329 31.1014 24.3623 31.3671Z" fill="white"/>
<path d="M13.0234 27.2385C11.9302 26.2932 11.0533 25.1236 10.4524 23.8092C9.85146 22.4948 9.5406 21.0665 9.54088 19.6213C9.54126 18.9513 9.60628 18.283 9.73504 17.6256C9.86905 16.9732 10.0662 16.3355 10.324 15.7214C11.0878 13.9107 12.3612 12.361 13.9895 11.2607C13.9895 11.2551 13.9895 11.2552 13.9956 11.2552C14.2586 11.0092 14.5326 10.7688 14.8133 10.5383C14.8177 10.5378 14.8217 10.5356 14.8244 10.5322C17.4386 8.3642 20.5428 6.8675 23.8671 6.17228C27.1914 5.47704 30.6352 5.60428 33.8992 6.54297C34.0095 6.56558 34.1198 6.59812 34.2301 6.63451C30.9118 2.89791 26.287 0.576126 21.3081 0.147397C16.3293 -0.281331 11.3756 1.21565 7.46746 4.32998C5.90227 5.57911 4.53517 7.05797 3.4126 8.71625C3.42134 13.5056 4.94468 18.1694 7.7647 22.0405C9.22754 24.0439 11.0031 25.799 13.0234 27.2385Z" fill="white"/>
<path d="M39.1794 38.6928V29.8464L39.1771 29.846L39.1752 29.8446L39.1741 29.8426L39.1739 29.8403H39.1678C39.0194 29.7433 38.8705 29.6517 38.7266 29.5486C38.3775 29.328 38.04 29.0915 37.7086 28.851C36.8774 28.2456 36.0866 27.5867 35.3412 26.8785C35.1984 26.7467 35.055 26.6094 34.9122 26.472C34.8895 26.4494 34.8664 26.4208 34.8438 26.3976C34.6376 26.198 34.4434 25.9978 34.2548 25.791C34.0486 25.5737 33.8485 25.3498 33.6483 25.1293C33.4884 24.9407 33.3224 24.7465 33.1624 24.5519C33.0593 24.4262 32.9568 24.2944 32.8536 24.1631C32.7676 24.06 32.6881 23.9514 32.6076 23.8482C32.4874 23.6883 32.3672 23.5284 32.2531 23.3679C32.2128 23.3128 32.1731 23.2576 32.1389 23.208C31.9901 23.0023 31.8411 22.7905 31.7043 22.5733C31.6841 22.548 31.6656 22.5213 31.6493 22.4933C31.4948 22.2589 31.3459 22.024 31.2031 21.7841C31.0658 21.5724 30.9401 21.3612 30.8259 21.1433C30.7741 21.0634 30.7283 20.9779 30.6826 20.8919C30.5629 20.6862 30.4482 20.4805 30.3517 20.2743C30.3401 20.2516 30.3285 20.2345 30.3175 20.2114C30.1857 19.9715 30.0655 19.7256 29.9513 19.4796C29.9513 19.468 29.9458 19.4625 29.9397 19.4509C29.8543 19.2855 29.7798 19.1201 29.7053 18.9546C29.7224 19.1752 29.7279 19.4007 29.7279 19.6235V29.2354C29.7284 29.8789 29.7937 30.5207 29.9227 31.1511C30.3617 33.2817 31.5224 35.1955 33.2088 36.5695C34.8952 37.9434 37.0041 38.6934 39.1794 38.6928Z" fill="white"/>
<path d="M39.1792 29.8463V19.6212C39.1783 15.0692 37.5863 10.6607 34.6788 7.15834C34.536 6.98132 34.387 6.80375 34.2326 6.63225C34.1423 6.60203 34.0502 6.57716 33.9569 6.5578C33.944 6.54716 33.9279 6.54115 33.9111 6.54071H33.9001C33.6884 6.47784 33.4711 6.42049 33.2538 6.36314C33.2196 6.35763 33.1794 6.34604 33.1391 6.33502C32.9334 6.28318 32.7216 6.23741 32.5104 6.19164C32.2071 6.12326 31.9038 6.06591 31.595 6.01462C31.4296 5.98594 31.2641 5.96334 31.0987 5.93466C30.8985 5.90598 30.6928 5.88337 30.4871 5.86021C30.298 5.83705 30.1094 5.81996 29.9208 5.80507C29.8238 5.79955 29.7262 5.78797 29.6236 5.78246C29.1317 5.74827 28.6342 5.73062 28.1346 5.73062C28.0083 5.73062 27.8826 5.73062 27.7629 5.73669C27.6527 5.73669 27.5512 5.7422 27.4425 5.74827C27.3833 5.74424 27.3239 5.74606 27.265 5.75378C27.185 5.75378 27.1051 5.7593 27.0251 5.76536C26.8133 5.77088 26.6021 5.78797 26.3904 5.80507C26.3043 5.81113 26.2189 5.81665 26.1328 5.82823C25.8643 5.85084 25.6012 5.87951 25.3321 5.91977C25.1667 5.94238 24.9952 5.96554 24.8292 5.99367C24.7979 5.99389 24.7668 5.9999 24.7377 6.01131C24.6119 6.02841 24.4802 6.05102 24.3517 6.07418C23.8659 6.15965 23.3794 6.26829 22.9052 6.39402C22.7618 6.42876 22.619 6.46847 22.4817 6.50872C21.7111 6.72583 20.9532 6.9854 20.2114 7.28627C20.0002 7.3723 19.7939 7.46384 19.5882 7.562C19.1305 7.76218 18.6844 7.98497 18.2443 8.22375C18.0613 8.31529 17.8842 8.41786 17.7066 8.52098C17.1976 8.8127 16.7003 9.12758 16.2177 9.46452C15.9773 9.63602 15.7374 9.80752 15.5008 9.98509C15.2775 10.1566 15.0547 10.3336 14.8391 10.5112C14.833 10.5202 14.8251 10.5279 14.8159 10.5338C14.753 10.5796 14.6962 10.6314 14.6334 10.6827C14.4128 10.8658 14.1983 11.0599 13.9871 11.2545C15.651 10.1266 17.6155 9.52485 19.6257 9.52739H19.6313C20.955 9.52739 22.2657 9.7885 23.4884 10.2958C24.7111 10.8031 25.8217 11.5466 26.7565 12.4837C28.4872 14.2127 29.5316 16.511 29.6958 18.9517C29.7702 19.1172 29.8447 19.2826 29.9302 19.4481C29.9362 19.4596 29.9417 19.4651 29.9417 19.4767C30.062 19.7227 30.1816 19.9686 30.3079 20.2085C30.3189 20.2317 30.3305 20.2488 30.3421 20.2714C30.4447 20.4776 30.5594 20.6833 30.673 20.889C30.7187 20.975 30.7645 21.0605 30.8163 21.1405C30.936 21.361 31.0617 21.5695 31.1935 21.7813C31.3364 22.0211 31.4853 22.2561 31.6397 22.4904C31.6561 22.5184 31.6745 22.5451 31.6948 22.5704C31.8316 22.7821 31.975 22.9934 32.1294 23.2051C32.1636 23.2564 32.2033 23.3082 32.2435 23.365C32.3577 23.5255 32.4779 23.6854 32.5981 23.8453C32.6781 23.9485 32.758 24.0571 32.844 24.1602C32.9411 24.2915 33.0442 24.4233 33.1529 24.549C33.3128 24.7437 33.4788 24.935 33.6387 25.1264C33.8389 25.347 34.039 25.5725 34.2453 25.7881C34.4339 25.9944 34.628 26.1945 34.8342 26.3947C34.8569 26.4179 34.8801 26.4466 34.9027 26.4692C35.0455 26.6065 35.1888 26.7449 35.3317 26.8756C36.0771 27.5838 36.868 28.2428 37.6991 28.8481C38.0299 29.0941 38.368 29.3285 38.7171 29.5518C38.8599 29.6489 39.0088 29.7459 39.1582 29.8375H39.1643C39.1631 29.8394 39.1628 29.8418 39.1633 29.844C39.1639 29.8462 39.1653 29.8482 39.1673 29.8493C39.1693 29.8505 39.1717 29.8508 39.1739 29.8502C39.1761 29.8497 39.178 29.8483 39.1792 29.8463Z" fill="white"/>
<g style="mix-blend-mode:multiply" opacity="0.1">
<g style="mix-blend-mode:multiply" opacity="0.1">
<path d="M9.53991 19.6221C9.5403 18.9522 9.60531 18.2839 9.73402 17.6264C8.34436 14.1727 7.4521 9.82058 7.46975 4.33084C5.90456 5.57997 4.53749 7.05884 3.41492 8.71711C3.42366 13.5064 4.947 18.1703 7.76698 22.0414C9.22883 24.0445 11.0033 25.7996 13.0223 27.2394C11.9292 26.2941 11.0523 25.1245 10.4514 23.8101C9.85049 22.4957 9.53963 21.0673 9.53991 19.6221Z" fill="white"/>
</g>
</g>
<g style="mix-blend-mode:multiply" opacity="0.16">
<g style="mix-blend-mode:multiply" opacity="0.16">
<path d="M24.3622 31.3672V30.4982C20.8085 29.6717 17.5421 27.906 14.9042 25.3856V28.4451C17.8032 30.1038 21.0328 31.1016 24.3622 31.3672Z" fill="white"/>
</g>
</g>
<g style="mix-blend-mode:multiply" opacity="0.1">
<g style="mix-blend-mode:multiply" opacity="0.1">
<path d="M37.75 12.2958C36.9997 10.4348 35.9635 8.70222 34.679 7.16063C34.5362 6.98361 34.3873 6.80604 34.2328 6.63454C34.1425 6.60432 34.0504 6.57945 33.9571 6.56009C33.9442 6.54945 33.9281 6.54344 33.9114 6.543H33.9004C33.6886 6.48013 33.4714 6.42278 33.2541 6.36543C33.2199 6.35991 33.1796 6.34833 33.1394 6.3373C32.9337 6.28547 32.7219 6.2397 32.5107 6.19393C32.2074 6.12555 31.9041 6.06819 31.5952 6.01691C31.4298 5.98823 31.2644 5.96562 31.0989 5.93695C30.8988 5.90827 30.6931 5.88566 30.4874 5.8625C30.2982 5.83934 30.1097 5.82225 29.9211 5.80736C29.824 5.80184 29.7264 5.79026 29.6239 5.78475C29.132 5.75056 28.6345 5.73291 28.1349 5.73291C28.0086 5.73291 27.8829 5.73291 27.7632 5.73898C27.6529 5.73898 27.5514 5.74449 27.4428 5.75056C27.3836 5.74653 27.3241 5.74841 27.2652 5.75607C27.1853 5.75607 27.1053 5.76159 27.0253 5.76765C26.8136 5.77317 26.6024 5.79026 26.3906 5.80736C26.3046 5.81342 26.2191 5.81894 26.1331 5.83052C25.8645 5.85313 25.6015 5.8818 25.3324 5.92206C25.1669 5.94467 24.9954 5.96783 24.8295 5.99595C24.7981 5.99623 24.7671 6.00219 24.7379 6.0136C24.6122 6.0307 24.4804 6.05331 24.3519 6.07647C23.8661 6.16194 23.3797 6.27058 22.9054 6.39631C22.762 6.43105 22.6192 6.47076 22.4819 6.51101C21.7114 6.72812 20.9534 6.98774 20.2116 7.28856C20.0004 7.37459 19.7942 7.46613 19.5885 7.56429C19.1308 7.76447 18.6846 7.98726 18.2446 8.22604C18.0615 8.31758 17.8844 8.42015 17.7069 8.52327C17.1979 8.81499 16.7005 9.12987 16.218 9.46681C15.9776 9.63831 15.7376 9.80981 15.501 9.98738C15.2777 10.1589 15.055 10.3359 14.8394 10.5135C14.8332 10.5225 14.8253 10.5302 14.8161 10.5361C14.7533 10.5818 14.6965 10.6337 14.6336 10.685C14.413 10.8681 14.1985 11.0622 13.9873 11.2568C15.6512 10.1289 17.6158 9.52714 19.626 9.52967H19.6315C23.886 8.53706 30.0678 8.42015 37.4275 12.143C37.5383 12.1871 37.6486 12.239 37.75 12.2958Z" fill="white"/>
</g>
</g>
<g style="mix-blend-mode:multiply" opacity="0.1">
<g style="mix-blend-mode:multiply" opacity="0.1">
<path d="M39.1792 35.662V29.8464C39.1785 29.8464 39.1777 29.8462 39.177 29.846C39.1763 29.8456 39.1757 29.8452 39.1751 29.8446C39.1746 29.844 39.1742 29.8434 39.1739 29.8426C39.1737 29.8419 39.1736 29.8411 39.1737 29.8403H39.1677C39.0193 29.7433 38.8704 29.6517 38.7264 29.5486C38.3774 29.328 38.0399 29.0915 37.7085 28.851C36.8773 28.2456 36.0865 27.5867 35.3411 26.8785C35.1983 26.7467 35.0549 26.6094 34.912 26.472C34.8894 26.4494 34.8663 26.4208 34.8437 26.3976C34.6375 26.198 34.4433 25.9978 34.2547 25.791C34.0485 25.5737 33.8483 25.3498 33.6482 25.1293C33.4882 24.9407 33.3222 24.7465 33.1623 24.5519C33.0592 24.4262 32.9566 24.2944 32.8535 24.1631C32.7675 24.06 32.688 23.9513 32.6075 23.8482C32.4873 23.6883 32.3671 23.5284 32.253 23.3679C32.2127 23.3128 32.173 23.2576 32.1388 23.208C31.9899 23.0023 31.841 22.7905 31.7042 22.5733C31.6839 22.548 31.6655 22.5213 31.6491 22.4933C31.4947 22.2589 31.3458 22.024 31.203 21.7841C31.0656 21.5724 30.94 21.3612 30.8258 21.1433C30.774 21.0634 30.7282 20.9779 30.6824 20.8919C30.5628 20.6862 30.4481 20.4805 30.3516 20.2743C30.34 20.2516 30.3284 20.2345 30.3174 20.2114C30.1856 19.9715 30.0654 19.7256 29.9512 19.4796C29.9512 19.468 29.9457 19.4625 29.9396 19.4509C29.8541 19.2855 29.7796 19.1201 29.7052 18.9546C29.7223 19.1752 29.7278 19.4007 29.7278 19.6235V22.1547C31.6901 27.1664 34.78 31.659 38.7579 35.2843C38.8935 35.4117 39.0364 35.5363 39.1792 35.662Z" fill="white"/>
</g>
</g>
<g style="mix-blend-mode:multiply" opacity="0.3">
<g style="mix-blend-mode:multiply" opacity="0.3">
<path d="M39.1793 38.6928V19.6213C39.1784 15.0693 37.5864 10.6608 34.6789 7.15839C35.0732 7.69605 35.4449 8.23924 35.7939 8.80558C36.1492 9.38058 36.4738 9.974 36.7662 10.5835C37.0176 11.0925 37.2349 11.613 37.4351 12.1391C37.4753 12.2367 37.5095 12.3393 37.5498 12.4424C37.7851 13.0719 37.9876 13.7132 38.1564 14.3637C38.3279 15.0117 38.4652 15.6683 38.5678 16.3307C38.6593 16.9925 38.7331 17.6575 38.7624 18.3209C38.7916 18.9843 38.7856 19.6477 38.7795 20.3337L38.7569 22.3741L38.7282 26.4516V30.529C38.7282 32.1135 38.7378 33.6975 38.7569 35.2809C38.7624 36.2879 38.7795 37.2943 38.7911 38.2946L38.405 38.2891L37.633 38.2036L36.8764 38.052L36.127 37.8408L35.3952 37.5606L34.6921 37.2176L34.0172 36.8173L33.3769 36.3596L32.7764 35.8561L32.21 35.3046L31.6895 34.7096L31.2207 34.0694L30.8088 33.3828L30.4542 32.6659L30.157 31.9226L29.9226 31.1505C30.3615 33.2811 31.5222 35.195 33.2086 36.5692C34.895 37.9432 37.0039 38.6933 39.1793 38.6928Z" fill="white"/>
</g>
</g>
<g style="mix-blend-mode:multiply" opacity="0.3">
<g style="mix-blend-mode:multiply" opacity="0.3">
<path d="M19.6331 39.1733H24.3618V32.4654C24.2879 33.5804 24.2476 34.7015 24.1964 35.8166C24.1506 36.8401 24.1164 37.857 24.0861 38.8816L20.4718 38.79C19.82 38.7785 19.1853 38.7845 18.5561 38.7349C17.9236 38.6903 17.2937 38.6139 16.669 38.506C16.046 38.4083 15.4292 38.2746 14.8216 38.1057C14.2047 37.9428 13.5972 37.7461 13.0018 37.5167C12.4128 37.3165 11.8349 37.0364 11.2576 36.7844C10.7028 36.4816 10.1254 36.2186 9.59935 35.864C9.0479 35.5497 8.54111 35.1719 8.02054 34.8058C7.76356 34.6227 7.52423 34.4115 7.27718 34.2168C7.02533 34.023 6.78489 33.815 6.55698 33.5937C6.32812 33.3764 6.08769 33.1646 5.8649 32.9419L5.20314 32.2498C4.98256 32.0292 4.7912 31.7695 4.57999 31.529C4.37981 31.2836 4.16805 31.0487 3.98497 30.7857L3.41917 30.0136L2.90412 29.2074C2.72159 28.9388 2.57326 28.656 2.4183 28.3802C2.26334 28.1045 2.09238 27.8255 1.96058 27.5337C1.68485 26.9558 1.40582 26.3757 1.18855 25.7663C0.942602 25.1834 0.777166 24.5713 0.570923 23.9708C1.37987 27.4922 3.14643 30.7215 5.67548 33.302C8.20456 35.8824 11.3977 37.7135 14.9021 38.5932C16.4489 38.982 18.0381 39.1769 19.6331 39.1733Z" fill="white"/>
</g>
</g>
<path d="M64.0015 30.2704H63.0794L61.5985 28.2166C61.2352 28.5426 60.8487 28.85 60.4389 29.1387C60.0384 29.4182 59.6146 29.665 59.1675 29.8792C58.7204 30.0841 58.2594 30.2471 57.7844 30.3682C57.3186 30.4893 56.8436 30.5498 56.3593 30.5498C55.3068 30.5498 54.3148 30.3729 53.3834 30.0189C52.4613 29.665 51.651 29.1527 50.9524 28.4821C50.2632 27.8021 49.7183 26.9732 49.3178 25.9952C48.9173 25.0172 48.717 23.9042 48.717 22.6561C48.717 21.4918 48.9173 20.4254 49.3178 19.4567C49.7183 18.4787 50.2632 17.6404 50.9524 16.9419C51.651 16.2433 52.4613 15.7031 53.3834 15.3212C54.3148 14.93 55.3068 14.7344 56.3593 14.7344C56.8436 14.7344 57.3233 14.795 57.7983 14.916C58.2733 15.0371 58.7344 15.2048 59.1815 15.419C59.6286 15.6332 60.0523 15.8847 60.4529 16.1734C60.8627 16.4622 61.2446 16.7742 61.5985 17.1095L63.0794 15.3352H64.0015V30.2704ZM60.1595 22.6561C60.1595 22.1345 60.057 21.6315 59.8521 21.1472C59.6565 20.6535 59.3864 20.2204 59.0418 19.8479C58.6971 19.466 58.292 19.1633 57.8263 18.9397C57.3699 18.7069 56.8809 18.5905 56.3593 18.5905C55.8377 18.5905 55.344 18.679 54.8783 18.8559C54.4219 19.0329 54.0214 19.2937 53.6768 19.6383C53.3415 19.9829 53.0761 20.4114 52.8805 20.9237C52.6849 21.4266 52.5871 22.0041 52.5871 22.6561C52.5871 23.3081 52.6849 23.8902 52.8805 24.4025C53.0761 24.9055 53.3415 25.3292 53.6768 25.6739C54.0214 26.0185 54.4219 26.2793 54.8783 26.4563C55.344 26.6332 55.8377 26.7217 56.3593 26.7217C56.8809 26.7217 57.3699 26.6099 57.8263 26.3864C58.292 26.1535 58.6971 25.8508 59.0418 25.4783C59.3864 25.0964 59.6565 24.6633 59.8521 24.1789C60.057 23.6853 60.1595 23.1777 60.1595 22.6561Z" fill="white"/>
<path d="M77.9169 28.524C77.6095 28.8034 77.2788 29.0689 76.9249 29.3204C76.5803 29.5625 76.217 29.7767 75.8352 29.963C75.4533 30.14 75.0574 30.2797 74.6476 30.3822C74.2471 30.4939 73.8373 30.5498 73.4181 30.5498C72.496 30.5498 71.6298 30.3868 70.8195 30.0608C70.0092 29.7348 69.2966 29.2738 68.6819 28.6777C68.0765 28.0723 67.5968 27.3411 67.2429 26.4842C66.8982 25.618 66.7259 24.6493 66.7259 23.5782V15.3072H70.5261V23.5782C70.5261 24.0812 70.6006 24.5329 70.7496 24.9334C70.908 25.3246 71.1175 25.6552 71.3783 25.9254C71.6391 26.1955 71.9418 26.4004 72.2865 26.5401C72.6404 26.6798 73.0176 26.7497 73.4181 26.7497C73.8093 26.7497 74.1772 26.6612 74.5219 26.4842C74.8758 26.2979 75.1832 26.0557 75.444 25.7577C75.7048 25.4596 75.9097 25.1243 76.0587 24.7518C76.2077 24.3699 76.2822 23.9787 76.2822 23.5782V15.3072H80.0964V30.2704H79.1743L77.9169 28.524Z" fill="white"/>
<path d="M97.4766 30.2704H96.5545L95.0735 28.2166C94.7103 28.5426 94.3237 28.85 93.9139 29.1387C93.5134 29.4182 93.0896 29.665 92.6425 29.8792C92.1954 30.0841 91.7344 30.2471 91.2594 30.3682C90.7937 30.4893 90.3186 30.5498 89.8343 30.5498C88.7818 30.5498 87.7898 30.3542 86.8584 29.963C85.9363 29.5625 85.126 29.013 84.4274 28.3144C83.7382 27.6066 83.1933 26.7729 82.7928 25.8136C82.3923 24.8449 82.1921 23.7924 82.1921 22.6561C82.1921 21.5291 82.3923 20.4812 82.7928 19.5126C83.1933 18.5439 83.7382 17.7056 84.4274 16.9977C85.126 16.2899 85.9363 15.7357 86.8584 15.3352C87.7898 14.9347 88.7818 14.7344 89.8343 14.7344C90.1696 14.7344 90.5142 14.7624 90.8682 14.8182C91.2314 14.8741 91.5807 14.9673 91.916 15.0977C92.2606 15.2187 92.582 15.3817 92.88 15.5867C93.1781 15.7916 93.4296 16.0431 93.6345 16.3411V9.3555H97.4766V30.2704ZM93.6345 22.6561C93.6345 22.1345 93.532 21.6315 93.3271 21.1472C93.1315 20.6535 92.8614 20.2204 92.5168 19.8479C92.1722 19.466 91.767 19.1633 91.3013 18.9397C90.8449 18.7069 90.3559 18.5905 89.8343 18.5905C89.3127 18.5905 88.8191 18.6836 88.3534 18.8699C87.897 19.0562 87.4965 19.3263 87.1518 19.6802C86.8165 20.0248 86.5511 20.4486 86.3555 20.9516C86.1599 21.4546 86.0621 22.0227 86.0621 22.6561C86.0621 23.2056 86.1599 23.7272 86.3555 24.2209C86.5511 24.7145 86.8165 25.1476 87.1518 25.5202C87.4965 25.8928 87.897 26.1861 88.3534 26.4004C88.8191 26.6146 89.3127 26.7217 89.8343 26.7217C90.3559 26.7217 90.8449 26.6099 91.3013 26.3864C91.767 26.1535 92.1722 25.8508 92.5168 25.4783C92.8614 25.0964 93.1315 24.6633 93.3271 24.1789C93.532 23.6853 93.6345 23.1777 93.6345 22.6561Z" fill="white"/>
<path d="M104.895 11.2416C104.895 11.5955 104.825 11.9262 104.686 12.2336C104.555 12.5409 104.374 12.811 104.141 13.0439C103.908 13.2674 103.633 13.4491 103.317 13.5888C103.009 13.7192 102.678 13.7844 102.325 13.7844C101.971 13.7844 101.635 13.7192 101.319 13.5888C101.011 13.4491 100.741 13.2674 100.508 13.0439C100.285 12.811 100.103 12.5409 99.9634 12.2336C99.833 11.9262 99.7678 11.5955 99.7678 11.2416C99.7678 10.897 99.833 10.571 99.9634 10.2636C100.103 9.94695 100.285 9.67684 100.508 9.4533C100.741 9.22044 101.011 9.03882 101.319 8.90842C101.635 8.76871 101.971 8.69885 102.325 8.69885C102.678 8.69885 103.009 8.76871 103.317 8.90842C103.633 9.03882 103.908 9.22044 104.141 9.4533C104.374 9.67684 104.555 9.94695 104.686 10.2636C104.825 10.571 104.895 10.897 104.895 11.2416ZM104.239 30.2704H100.397V15.3072H104.239V30.2704Z" fill="white"/>
<path d="M114.661 30.2704C113.739 30.2704 112.873 30.0981 112.062 29.7535C111.252 29.3995 110.54 28.9198 109.925 28.3144C109.319 27.6997 108.84 26.9872 108.486 26.1768C108.141 25.3665 107.969 24.5003 107.969 23.5782V19.1353H106.111V15.3352H107.969V9.3555H111.769V15.3352H117.553V19.1353H111.769V23.5782C111.769 23.9787 111.844 24.3559 111.993 24.7099C112.142 25.0545 112.347 25.3572 112.607 25.618C112.868 25.8788 113.176 26.0883 113.529 26.2467C113.883 26.3957 114.261 26.4702 114.661 26.4702H117.553V30.2704H114.661Z" fill="white"/>
<path d="M124.203 11.2416C124.203 11.5955 124.134 11.9262 123.994 12.2336C123.863 12.5409 123.682 12.811 123.449 13.0439C123.216 13.2674 122.941 13.4491 122.625 13.5888C122.317 13.7192 121.987 13.7844 121.633 13.7844C121.279 13.7844 120.944 13.7192 120.627 13.5888C120.319 13.4491 120.049 13.2674 119.817 13.0439C119.593 12.811 119.411 12.5409 119.272 12.2336C119.141 11.9262 119.076 11.5955 119.076 11.2416C119.076 10.897 119.141 10.571 119.272 10.2636C119.411 9.94695 119.593 9.67684 119.817 9.4533C120.049 9.22044 120.319 9.03882 120.627 8.90842C120.944 8.76871 121.279 8.69885 121.633 8.69885C121.987 8.69885 122.317 8.76871 122.625 8.90842C122.941 9.03882 123.216 9.22044 123.449 9.4533C123.682 9.67684 123.863 9.94695 123.994 10.2636C124.134 10.571 124.203 10.897 124.203 11.2416ZM123.547 30.2704H119.705V15.3072H123.547V30.2704Z" fill="white"/>
<path d="M139.544 18.2831L136.75 21.0913C136.61 20.7001 136.419 20.3508 136.177 20.0435C135.935 19.7268 135.66 19.4613 135.352 19.2471C135.054 19.0329 134.728 18.8699 134.375 18.7581C134.021 18.6464 133.657 18.5905 133.285 18.5905C132.763 18.5905 132.27 18.6976 131.804 18.9118C131.347 19.126 130.947 19.4287 130.602 19.8199C130.267 20.2018 130.002 20.6582 129.806 21.1891C129.61 21.72 129.513 22.3068 129.513 22.9495C129.513 23.4711 129.61 23.9601 129.806 24.4165C130.002 24.8729 130.267 25.2734 130.602 25.618C130.947 25.9626 131.347 26.2327 131.804 26.4283C132.27 26.6239 132.763 26.7217 133.285 26.7217C133.657 26.7217 134.016 26.6705 134.361 26.568C134.705 26.4656 135.026 26.3212 135.325 26.1349C135.632 25.9393 135.902 25.7065 136.135 25.4364C136.377 25.1569 136.573 24.8496 136.722 24.5143L139.516 27.3225C139.162 27.8254 138.752 28.2772 138.286 28.6777C137.83 29.0782 137.332 29.4182 136.792 29.6976C136.261 29.977 135.697 30.1866 135.101 30.3263C134.514 30.4753 133.909 30.5498 133.285 30.5498C132.232 30.5498 131.24 30.3542 130.309 29.963C129.387 29.5625 128.576 29.0176 127.878 28.3284C127.189 27.6392 126.644 26.8335 126.243 25.9114C125.843 24.9893 125.643 24.002 125.643 22.9495C125.643 21.8038 125.843 20.7327 126.243 19.7361C126.644 18.7395 127.189 17.8733 127.878 17.1375C128.576 16.3923 129.387 15.8055 130.309 15.3771C131.24 14.9486 132.232 14.7344 133.285 14.7344C133.909 14.7344 134.519 14.8136 135.115 14.9719C135.72 15.1303 136.293 15.3631 136.833 15.6705C137.383 15.9685 137.886 16.3364 138.342 16.7742C138.808 17.212 139.209 17.7149 139.544 18.2831Z" fill="white"/>
<path d="M155.681 30.2704H154.758L153.278 28.2166C152.914 28.5426 152.528 28.85 152.118 29.1387C151.717 29.4182 151.294 29.665 150.847 29.8792C150.399 30.0841 149.938 30.2471 149.463 30.3682C148.998 30.4893 148.523 30.5498 148.038 30.5498C146.986 30.5498 145.994 30.3729 145.062 30.0189C144.14 29.665 143.33 29.1527 142.631 28.4821C141.942 27.8021 141.397 26.9732 140.997 25.9952C140.596 25.0172 140.396 23.9042 140.396 22.6561C140.396 21.4918 140.596 20.4254 140.997 19.4567C141.397 18.4787 141.942 17.6404 142.631 16.9419C143.33 16.2433 144.14 15.7031 145.062 15.3212C145.994 14.93 146.986 14.7344 148.038 14.7344C148.523 14.7344 149.002 14.795 149.477 14.916C149.952 15.0371 150.413 15.2048 150.861 15.419C151.308 15.6332 151.731 15.8847 152.132 16.1734C152.542 16.4622 152.924 16.7742 153.278 17.1095L154.758 15.3352H155.681V30.2704ZM151.839 22.6561C151.839 22.1345 151.736 21.6315 151.531 21.1472C151.336 20.6535 151.065 20.2204 150.721 19.8479C150.376 19.466 149.971 19.1633 149.505 18.9397C149.049 18.7069 148.56 18.5905 148.038 18.5905C147.517 18.5905 147.023 18.679 146.557 18.8559C146.101 19.0329 145.7 19.2937 145.356 19.6383C145.021 19.9829 144.755 20.4114 144.56 20.9237C144.364 21.4266 144.266 22.0041 144.266 22.6561C144.266 23.3081 144.364 23.8902 144.56 24.4025C144.755 24.9055 145.021 25.3292 145.356 25.6739C145.7 26.0185 146.101 26.2793 146.557 26.4563C147.023 26.6332 147.517 26.7217 148.038 26.7217C148.56 26.7217 149.049 26.6099 149.505 26.3864C149.971 26.1535 150.376 25.8508 150.721 25.4783C151.065 25.0964 151.336 24.6633 151.531 24.1789C151.736 23.6853 151.839 23.1777 151.839 22.6561Z" fill="white"/>
</svg>
