<svg width="20" height="16" viewBox="0 0 20 16" fill="none" xmlns="http://www.w3.org/2000/svg">
<path d="M19.1666 6.28333C19.1579 6.20678 19.1411 6.13136 19.1166 6.05833V5.98333C19.0765 5.89765 19.0231 5.81889 18.9583 5.75L13.9583 0.75C13.8894 0.68518 13.8106 0.631734 13.7249 0.591667H13.6499C13.5653 0.543118 13.4718 0.511954 13.3749 0.5H6.66659C6.00354 0.5 5.36766 0.763392 4.89882 1.23223C4.42998 1.70107 4.16659 2.33696 4.16659 3V3.83333H3.33325C2.67021 3.83333 2.03433 4.09673 1.56549 4.56557C1.09664 5.03441 0.833252 5.67029 0.833252 6.33333V13C0.833252 13.663 1.09664 14.2989 1.56549 14.7678C2.03433 15.2366 2.67021 15.5 3.33325 15.5H13.3333C13.9963 15.5 14.6322 15.2366 15.101 14.7678C15.5699 14.2989 15.8333 13.663 15.8333 13V12.1667H16.6666C17.3296 12.1667 17.9655 11.9033 18.4344 11.4344C18.9032 10.9656 19.1666 10.3297 19.1666 9.66667V6.28333ZM14.1666 3.34167L16.3249 5.5H14.9999C14.7789 5.5 14.5669 5.4122 14.4107 5.25592C14.2544 5.09964 14.1666 4.88768 14.1666 4.66667V3.34167ZM14.1666 13C14.1666 13.221 14.0788 13.433 13.9225 13.5893C13.7662 13.7455 13.5543 13.8333 13.3333 13.8333H3.33325C3.11224 13.8333 2.90028 13.7455 2.744 13.5893C2.58772 13.433 2.49992 13.221 2.49992 13V6.33333C2.49992 6.11232 2.58772 5.90036 2.744 5.74408C2.90028 5.5878 3.11224 5.5 3.33325 5.5H4.16659V9.66667C4.16659 10.3297 4.42998 10.9656 4.89882 11.4344C5.36766 11.9033 6.00354 12.1667 6.66659 12.1667H14.1666V13ZM17.4999 9.66667C17.4999 9.88768 17.4121 10.0996 17.2558 10.2559C17.0996 10.4122 16.8876 10.5 16.6666 10.5H6.66659C6.44557 10.5 6.23361 10.4122 6.07733 10.2559C5.92105 10.0996 5.83325 9.88768 5.83325 9.66667V3C5.83325 2.77899 5.92105 2.56702 6.07733 2.41074C6.23361 2.25446 6.44557 2.16667 6.66659 2.16667H12.4999V4.66667C12.4999 5.32971 12.7633 5.96559 13.2322 6.43443C13.701 6.90327 14.3369 7.16667 14.9999 7.16667H17.4999V9.66667Z" fill="white"/>
</svg>
