<svg width="40" height="40" viewBox="0 0 40 40" fill="none" xmlns="http://www.w3.org/2000/svg">
<path d="M20 2.5C10.3359 2.5 2.5 10.3359 2.5 20C2.5 29.6641 10.3359 37.5 20 37.5C29.6641 37.5 37.5 29.6641 37.5 20C37.5 10.3359 29.6641 2.5 20 2.5ZM25.6289 20.2695L17.0977 26.4766C17.0509 26.5102 16.9958 26.5302 16.9383 26.5346C16.8809 26.5389 16.8234 26.5273 16.7721 26.501C16.7208 26.4748 16.6778 26.4349 16.6477 26.3858C16.6176 26.3367 16.6017 26.2802 16.6016 26.2227V13.8164C16.6014 13.7587 16.6172 13.7021 16.6472 13.6528C16.6772 13.6035 16.7203 13.5635 16.7717 13.5372C16.8231 13.5109 16.8807 13.4994 16.9382 13.5038C16.9958 13.5083 17.051 13.5286 17.0977 13.5625L25.6289 19.7656C25.6692 19.7941 25.7021 19.8319 25.7248 19.8757C25.7475 19.9196 25.7593 19.9682 25.7593 20.0176C25.7593 20.0669 25.7475 20.1156 25.7248 20.1594C25.7021 20.2033 25.6692 20.241 25.6289 20.2695V20.2695Z" fill="white"/>
</svg>
