<svg width="16" height="5" viewBox="0 0 16 5" fill="none" xmlns="http://www.w3.org/2000/svg">
<path d="M14.0282 4.74659C12.9747 4.74659 12.1206 3.89256 12.1206 2.83905C12.1206 1.78555 12.9747 0.931519 14.0282 0.931519C15.0817 0.931519 15.9357 1.78555 15.9357 2.83905C15.9357 3.34496 15.7347 3.83015 15.377 4.18789C15.0193 4.54562 14.5341 4.74659 14.0282 4.74659ZM8.30556 4.74659C7.25205 4.74659 6.39802 3.89256 6.39802 2.83905C6.39802 1.78555 7.25205 0.931519 8.30556 0.931519C9.35906 0.931519 10.2131 1.78555 10.2131 2.83905C10.2131 3.34496 10.0121 3.83015 9.65439 4.18789C9.29666 4.54562 8.81147 4.74659 8.30556 4.74659ZM2.58295 4.74659C1.52945 4.74659 0.675415 3.89256 0.675415 2.83905C0.675415 1.78555 1.52945 0.931519 2.58295 0.931519C3.63645 0.931519 4.49049 1.78555 4.49049 2.83905C4.49049 3.34496 4.28951 3.83015 3.93178 4.18789C3.57405 4.54562 3.08886 4.74659 2.58295 4.74659Z" fill="#AFB6B3"/>
</svg>
