<svg width="23" height="24" viewBox="0 0 23 24" fill="none" xmlns="http://www.w3.org/2000/svg">
<path d="M16.2813 8.25L12.75 4.71875L14.5 2.9375L16.2813 4.71875L20.6875 0.28125L22.4687 2.0625L16.2813 8.25ZM0.25 23.25V3.25C0.25 2.5625 0.495 1.97375 0.985 1.48375C1.47417 0.994583 2.0625 0.75 2.75 0.75H11.5C11.0833 1.375 10.7708 1.97417 10.5625 2.5475C10.3542 3.12 10.25 3.77083 10.25 4.5C10.25 6 10.7238 7.32292 11.6713 8.46875C12.6196 9.61458 13.8125 10.3333 15.25 10.625C15.7292 10.6875 16.1458 10.7188 16.5 10.7188C16.8542 10.7188 17.2708 10.6875 17.75 10.625V23.25L9 19.5L0.25 23.25Z" fill="#0167FF"/>
</svg>
