<svg width="23" height="20" viewBox="0 0 23 20" fill="none" xmlns="http://www.w3.org/2000/svg">
<path d="M22.381 10.3165L12.381 0.3165C11.9599 -0.1055 11.151 -0.1055 10.7299 0.3165L0.729873 10.3165C0.585936 10.4601 0.491456 10.6382 0.457923 10.8293C0.424389 11.0203 0.453246 11.216 0.540985 11.3925C0.718762 11.7535 1.11654 11.9855 1.55543 11.9855H3.77765V18.9855C3.77765 19.2507 3.89471 19.5051 4.10309 19.6926C4.31146 19.8801 4.59408 19.9855 4.88876 19.9855H8.2221C8.51678 19.9855 8.7994 19.8801 9.00777 19.6926C9.21614 19.5051 9.33321 19.2507 9.33321 18.9855V14.9855H13.7777V18.9855C13.7777 19.2507 13.8947 19.5051 14.1031 19.6926C14.3115 19.8801 14.5941 19.9855 14.8888 19.9855H18.2221C18.5168 19.9855 18.7994 19.8801 19.0078 19.6926C19.2161 19.5051 19.3332 19.2507 19.3332 18.9855V11.9855H21.5554C21.7706 11.9863 21.9814 11.9308 22.1621 11.8256C22.3429 11.7205 22.4857 11.5703 22.5732 11.3934C22.6607 11.2165 22.6891 11.0204 22.655 10.8292C22.6209 10.638 22.5257 10.4599 22.381 10.3165V10.3165Z" fill="#F7F7F7"/>
</svg>
