<svg width="15" height="16" viewBox="0 0 15 16" fill="none" xmlns="http://www.w3.org/2000/svg">
<path d="M10.8542 5.5L8.50008 3.14583L9.66675 1.95833L10.8542 3.14583L13.7917 0.1875L14.9792 1.375L10.8542 5.5ZM0.166748 15.5V2.16667C0.166748 1.70833 0.330081 1.31583 0.656748 0.989167C0.982859 0.663055 1.37508 0.5 1.83341 0.5H7.66675C7.38897 0.916667 7.18064 1.31611 7.04175 1.69833C6.90286 2.08 6.83342 2.51389 6.83342 3C6.83342 4 7.14925 4.88194 7.78092 5.64583C8.41314 6.40972 9.20842 6.88889 10.1667 7.08333C10.4862 7.125 10.764 7.14583 11.0001 7.14583C11.2362 7.14583 11.514 7.125 11.8334 7.08333V15.5L6.00008 13L0.166748 15.5Z" fill="white"/>
</svg>
