<svg width="20" height="20" viewBox="0 0 20 20" fill="none" xmlns="http://www.w3.org/2000/svg">
<path fill-rule="evenodd" clip-rule="evenodd" d="M0.833252 4.16665C0.833252 3.72877 0.919526 3.29518 1.08715 2.89065C1.25477 2.48612 1.50045 2.11859 1.81015 1.80903C2.11986 1.49948 2.48752 1.25399 2.89213 1.08657C3.29674 0.919152 3.73037 0.833094 4.16825 0.833313H15.8316C16.2695 0.833094 16.7031 0.919152 17.1077 1.08657C17.5123 1.25399 17.88 1.49948 18.1897 1.80903C18.4994 2.11859 18.7451 2.48612 18.9127 2.89065C19.0803 3.29518 19.1666 3.72877 19.1666 4.16665V15.8333C19.1666 16.7174 18.8154 17.5652 18.1903 18.1903C17.5652 18.8155 16.7173 19.1666 15.8333 19.1666H4.16659C3.28253 19.1666 2.43468 18.8155 1.80956 18.1903C1.18444 17.5652 0.833252 16.7174 0.833252 15.8333V4.16665ZM16.6666 9.99998C16.6666 11.7681 15.9642 13.4638 14.714 14.714C13.4637 15.9643 11.768 16.6666 9.99992 16.6666C8.23181 16.6666 6.53612 15.9643 5.28587 14.714C4.03563 13.4638 3.33325 11.7681 3.33325 9.99998C3.33325 8.23187 4.03563 6.53618 5.28587 5.28594C6.53612 4.03569 8.23181 3.33331 9.99992 3.33331C11.768 3.33331 13.4637 4.03569 14.714 5.28594C15.9642 6.53618 16.6666 8.23187 16.6666 9.99998V9.99998ZM9.99992 11.6666C10.4419 11.6666 10.8659 11.4911 11.1784 11.1785C11.491 10.8659 11.6666 10.442 11.6666 9.99998C11.6666 9.55795 11.491 9.13403 11.1784 8.82147C10.8659 8.50891 10.4419 8.33331 9.99992 8.33331C9.55789 8.33331 9.13397 8.50891 8.82141 8.82147C8.50885 9.13403 8.33325 9.55795 8.33325 9.99998C8.33325 10.442 8.50885 10.8659 8.82141 11.1785C9.13397 11.4911 9.55789 11.6666 9.99992 11.6666Z" fill="white"/>
</svg>
