<svg width="20" height="20" viewBox="0 0 20 20" fill="none" xmlns="http://www.w3.org/2000/svg">
<path d="M19.6767 18.7511C19.6767 19.0803 19.4098 19.3472 19.0806 19.3472H14.5581C14.0271 19.3472 13.7612 18.7053 14.1365 18.3297L15.1411 17.3246C15.3738 17.0918 15.3738 16.7145 15.1411 16.4818L12.2533 13.5931C12.0206 13.3603 12.0206 12.9829 12.2534 12.7501L13.0915 11.912C13.3243 11.6792 13.7017 11.6792 13.9345 11.9119L16.8232 14.7997C17.0559 15.0324 17.4332 15.0324 17.666 14.7997L18.6592 13.8071C19.0347 13.4317 19.6767 13.6977 19.6767 14.2287V18.7511ZM2.28293 19.3472C2.28255 19.3472 2.28218 19.3471 2.28191 19.3468L1.02266 18.0875C0.789933 17.8548 0.789857 17.4775 1.02249 17.2447L15.1305 3.12547C15.3631 2.89265 15.363 2.51534 15.1303 2.28262L14.1371 1.28946C13.7616 0.913939 14.0276 0.271851 14.5586 0.271851H19.0806C19.4098 0.271851 19.6767 0.538736 19.6767 0.867955V5.38988C19.6767 5.92095 19.0346 6.18691 18.6591 5.81139L17.6659 4.81825C17.4332 4.58552 17.0559 4.58545 16.8231 4.8181L2.28395 19.3468C2.28368 19.3471 2.28331 19.3472 2.28293 19.3472V19.3472ZM7.18655 7.69805C6.95352 7.92944 6.57723 7.92878 6.34502 7.69657L1.02283 2.37438C0.790035 2.14158 0.790035 1.76415 1.02283 1.53136L1.86123 0.692954C2.09387 0.460319 2.47098 0.460137 2.70384 0.692546L8.03416 6.01257C8.26792 6.24588 8.26743 6.62478 8.03308 6.85749L7.18655 7.69805Z" fill="white"/>
</svg>
