<svg width="29" height="29" viewBox="0 0 29 29" fill="none" xmlns="http://www.w3.org/2000/svg">
<path d="M8.3455 24.7895C8.3455 25.3205 7.70341 25.5865 7.32788 25.211L3.99817 21.8813C3.76538 21.6485 3.76538 21.271 3.99817 21.0382L7.32788 17.7085C7.70341 17.333 8.3455 17.599 8.3455 18.13V19.6714C8.3455 20.0007 8.61238 20.2675 8.9416 20.2675H19.6715C20.0007 20.2675 20.2676 20.0007 20.2676 19.6714V16.0948C20.2676 15.7656 20.5345 15.4987 20.8637 15.4987H22.0559C22.3851 15.4987 22.652 15.7656 22.652 16.0948V21.4598C22.652 22.1182 22.1182 22.652 21.4598 22.652H8.9416C8.61238 22.652 8.3455 22.9188 8.3455 23.2481V24.7895ZM8.3455 12.5182C8.3455 12.8474 8.07861 13.1143 7.74939 13.1143H6.55718C6.22796 13.1143 5.96108 12.8474 5.96108 12.5182V7.15324C5.96108 6.4948 6.49485 5.96103 7.15329 5.96103H19.6715C20.0007 5.96103 20.2676 5.69414 20.2676 5.36492V3.82352C20.2676 3.29245 20.9097 3.02649 21.2852 3.40201L24.6149 6.73173C24.8477 6.96452 24.8477 7.34195 24.6149 7.57475L21.2852 10.9045C20.9097 11.28 20.2676 11.014 20.2676 10.483V8.94155C20.2676 8.61233 20.0007 8.34545 19.6715 8.34545H8.9416C8.61238 8.34545 8.3455 8.61233 8.3455 8.94155V12.5182Z" fill="#0167FF"/>
</svg>
