<svg width="22" height="23" viewBox="0 0 22 23" fill="none" xmlns="http://www.w3.org/2000/svg">
<path d="M5.39384 22.2925C5.39384 22.8236 4.75175 23.0896 4.37622 22.714L1.04651 19.3843C0.813716 19.1515 0.813716 18.7741 1.04651 18.5413L4.37622 15.2116C4.75175 14.8361 5.39384 15.102 5.39384 15.6331V17.1745C5.39384 17.5037 5.66072 17.7706 5.98994 17.7706H16.7198C17.049 17.7706 17.3159 17.5037 17.3159 17.1745V13.5979C17.3159 13.2686 17.5828 13.0018 17.912 13.0018H19.1042C19.4335 13.0018 19.7004 13.2686 19.7004 13.5979V18.9628C19.7004 19.6212 19.1666 20.155 18.5081 20.155H5.98994C5.66072 20.155 5.39384 20.4219 5.39384 20.7511V22.2925ZM5.39384 10.0212C5.39384 10.3505 5.12695 10.6173 4.79773 10.6173H3.60552C3.2763 10.6173 3.00942 10.3505 3.00942 10.0212V4.65629C3.00942 3.99785 3.54319 3.46408 4.20163 3.46408H16.7198C17.049 3.46408 17.3159 3.19719 17.3159 2.86798V1.32658C17.3159 0.795503 17.958 0.529541 18.3335 0.905066L21.6633 4.23478C21.8961 4.46757 21.8961 4.84501 21.6633 5.0778L18.3335 8.40751C17.958 8.78304 17.3159 8.51708 17.3159 7.986V6.4446C17.3159 6.11538 17.049 5.8485 16.7198 5.8485H5.98994C5.66072 5.8485 5.39384 6.11538 5.39384 6.4446V10.0212Z" fill="white"/>
</svg>
