<svg width="16" height="20" viewBox="0 0 16 20" fill="none" xmlns="http://www.w3.org/2000/svg">
<path d="M8.0004 0C3.6032 0 0 3.3416 0 7.4196C0 8.9996 0.5428 10.4678 1.4612 11.675L7.0242 19.361C7.8032 20.3074 8.321 20.1278 8.9688 19.311L15.1048 10.858C15.2288 10.6494 15.326 10.4274 15.4108 10.2008C15.7894 9.3404 16 8.402 16 7.4196C16 3.3416 12.3978 0 8.0004 0ZM6.4428 4.2916C6.9896 4.2916 7.5104 4.5752 7.9786 4.8314C8.4466 4.5752 8.9674 4.2916 9.5142 4.2914C11.1972 4.2914 12.5714 5.5694 12.5714 7.1348V7.141C12.5506 8.465 11.4042 9.6916 10.3348 10.659C9.2654 11.6266 8.2044 12.3146 8.2044 12.3146C8.12549 12.365 8.03371 12.3914 7.9401 12.3908C7.84649 12.3902 7.75505 12.3626 7.6768 12.3112C7.6768 12.3112 6.683 11.6502 5.6576 10.6968C4.6322 9.7436 3.5264 8.5108 3.388 7.1756C3.38654 7.16205 3.38581 7.14843 3.3858 7.1348C3.3858 5.5696 4.7598 4.2916 6.4428 4.2916V4.2916Z" fill="white"/>
</svg>
