<svg width="50" height="50" viewBox="0 0 50 50" fill="none" xmlns="http://www.w3.org/2000/svg">
<path d="M22.9167 14.6875V8.33333C22.9167 7.7808 22.6972 7.25089 22.3065 6.86019C21.9158 6.46949 21.3859 6.25 20.8333 6.25C20.2868 6.2523 19.763 6.46928 19.375 6.85417L4.79166 21.4375C4.59639 21.6312 4.44141 21.8616 4.33564 22.1155C4.22987 22.3693 4.17542 22.6416 4.17542 22.9167C4.17542 23.1917 4.22987 23.464 4.33564 23.7179C4.44141 23.9717 4.59639 24.2022 4.79166 24.3958L19.375 38.9792C19.6675 39.2658 20.0379 39.46 20.4401 39.5373C20.8423 39.6146 21.2583 39.5716 21.6362 39.4138C22.0141 39.256 22.3371 38.9902 22.5649 38.6499C22.7926 38.3095 22.915 37.9095 22.9167 37.5V31.0417H24.6875C27.979 30.9926 31.2418 31.6603 34.2493 32.9986C37.2569 34.3369 39.9372 36.3137 42.1042 38.7917C42.3653 39.1393 42.7287 39.3966 43.1434 39.5273C43.5581 39.6581 44.0033 39.6558 44.4167 39.5208C44.8373 39.3789 45.2016 39.1063 45.4564 38.7428C45.7113 38.3792 45.8433 37.9438 45.8333 37.5C45.8333 18.5 29 15.25 22.9167 14.6875V14.6875ZM24.6875 26.8333C23.2941 26.829 21.902 26.9195 20.5208 27.1042C20.0276 27.179 19.5776 27.4283 19.2527 27.8068C18.9277 28.1853 18.7493 28.6678 18.75 29.1667V32.4792L9.20833 22.9167L18.75 13.3542V16.6667C18.75 17.2192 18.9695 17.7491 19.3602 18.1398C19.7509 18.5305 20.2808 18.75 20.8333 18.75C22.7292 18.75 37.7292 19.1667 40.9792 32.1458C36.2619 28.6678 30.5483 26.8047 24.6875 26.8333V26.8333Z" fill="white"/>
</svg>
