<svg width="40" height="40" viewBox="0 0 40 40" fill="none" xmlns="http://www.w3.org/2000/svg">
<path d="M19.87 0C8.89715 0 0 8.89715 0 19.87C0 30.8429 8.89715 39.74 19.87 39.74C30.8429 39.74 39.74 30.8429 39.74 19.87C39.74 8.89715 30.8429 0 19.87 0ZM26.2612 20.176L16.5746 27.2237C16.5215 27.2618 16.4589 27.2846 16.3937 27.2895C16.3285 27.2944 16.2632 27.2812 16.205 27.2515C16.1468 27.2217 16.0979 27.1764 16.0637 27.1206C16.0296 27.0649 16.0114 27.0008 16.0113 26.9354V12.849C16.0111 12.7834 16.029 12.7191 16.0631 12.6632C16.0972 12.6072 16.1461 12.5618 16.2045 12.532C16.2628 12.5021 16.3283 12.489 16.3936 12.4941C16.4589 12.4991 16.5216 12.5222 16.5746 12.5607L26.2612 19.6039C26.307 19.6362 26.3443 19.6791 26.3701 19.7289C26.3958 19.7787 26.4093 19.8339 26.4093 19.89C26.4093 19.946 26.3958 20.0012 26.3701 20.051C26.3443 20.1008 26.307 20.1437 26.2612 20.176V20.176Z" fill="white"/>
</svg>
